<svg width="101" height="101" viewBox="0 0 101 101" fill="none" xmlns="http://www.w3.org/2000/svg">
<g clip-path="url(#clip0_102_1144)">
<path d="M14.551 1.14709H88.173C91.104 1.14709 93.857 2.39009 95.809 4.34409C97.675 6.20909 98.917 8.87409 98.917 11.8931C99.095 30.4541 99.006 45.5501 94.034 59.2271C89.06 73.0811 79.378 85.2481 60.377 97.5041C57.622 99.2811 54.515 100.169 51.495 100.169C48.386 100.169 45.277 99.2811 42.524 97.5941C23.253 85.1611 13.484 72.9921 8.51098 59.1381C3.62598 45.4621 3.62598 30.4541 3.71498 11.8931C3.80398 8.96209 4.95898 6.20909 6.91398 4.34309C8.86698 2.39009 11.62 1.14709 14.551 1.14709V1.14709ZM88.173 7.45109H14.551C13.307 7.45109 12.153 7.89509 11.354 8.69509C10.554 9.58109 10.021 10.6481 10.021 11.8921C9.84298 29.8311 9.84298 44.3071 14.462 57.0051C18.901 69.6151 27.96 80.7191 45.901 92.2631C47.676 93.4151 49.543 93.9511 51.494 93.9511C53.36 93.9511 55.223 93.4151 56.999 92.2631C74.673 80.8961 83.641 69.7041 88.172 57.0931C92.698 44.3941 92.88 29.8291 92.698 11.8911C92.698 10.6471 92.167 9.58009 91.366 8.69409C90.571 7.89509 89.415 7.45109 88.173 7.45109V7.45109Z" fill="#0B0C0C"/>
<path d="M27.9799 45.513C26.2019 44.028 25.9649 41.382 27.4529 39.603C28.9159 37.853 31.5119 37.594 33.2939 39.019L48.881 51.774L71.201 28.981C72.801 27.351 75.4189 27.326 77.0509 28.925C77.0689 28.944 77.088 28.963 77.106 28.981C78.7 30.627 78.7 33.241 77.106 34.887L53.9619 58.391C51.4399 61.041 47.284 61.248 44.511 58.863L27.9799 45.513Z" fill="#0B0C0C"/>
</g>
<defs>
<clipPath id="clip0_102_1144">
<rect width="100" height="100" fill="white" transform="translate(0.5 0.613037)"/>
</clipPath>
</defs>
</svg>
