<svg width="100" height="105" viewBox="0 0 100 105" fill="none" xmlns="http://www.w3.org/2000/svg">
<g clip-path="url(#clip0_117_2139)">
<path d="M13.9628 14.6444H65.5166C67.3411 14.638 69.1488 14.9923 70.8358 15.6869C72.5229 16.3815 74.056 17.4027 75.3471 18.6918C77.9584 21.2978 79.4438 24.8238 79.4842 28.5128V90.3811C79.4562 94.0693 77.9721 97.5969 75.355 100.196C72.738 102.795 69.2001 104.254 65.5119 104.257H13.9628C12.1388 104.265 10.3311 103.912 8.64393 103.219C6.95678 102.525 5.42349 101.505 4.13238 100.216C2.80999 98.9442 1.76055 97.4162 1.04805 95.7252C0.33555 94.0343 -0.0250815 92.216 -0.011856 90.3811V28.5128C-0.0125887 26.6819 0.353783 24.8694 1.0656 23.1826C1.77742 21.4957 2.82023 19.9687 4.13238 18.6918C5.42322 17.4024 6.9563 16.381 8.64341 15.6864C10.3305 14.9918 12.1383 14.6376 13.9628 14.6444V14.6444ZM65.519 21.3909H13.9628C12.0508 21.4182 10.2222 22.179 8.85515 23.5161C7.56617 24.8672 6.84223 26.6597 6.83144 28.527V90.3811C6.8239 92.2513 7.55056 94.0497 8.85515 95.3896C10.2231 96.7255 12.0511 97.4861 13.9628 97.5149H65.5166C66.4509 97.5098 67.3749 97.3193 68.2351 96.9545C69.0952 96.5897 69.8744 96.0578 70.5275 95.3896C71.2058 94.7448 71.7445 93.9676 72.11 93.106C72.4756 92.2445 72.6603 91.317 72.6527 90.3811V28.5128C72.6259 26.6302 71.8663 24.8322 70.5352 23.5007C69.204 22.1691 67.4063 21.4089 65.5237 21.3814L65.519 21.3909Z" fill="#0B0C0C"/>
<path d="M19.0635 24.586H31.9732C32.9593 24.5841 33.936 24.779 34.8459 25.1594C35.7558 25.5397 36.5806 26.0978 37.2721 26.8009C37.965 27.4785 38.5174 28.2862 38.8975 29.1776C39.2776 30.0691 39.478 31.0269 39.4871 31.996V45.0049C39.4781 45.974 39.2778 46.9318 38.8977 47.8233C38.5176 48.7148 37.9651 49.5225 37.2721 50.1999V50.1999C36.5805 50.9028 35.7556 51.4608 34.8457 51.8411C33.9359 52.2214 32.9593 52.4165 31.9732 52.4149H19.0635C18.0929 52.4153 17.1323 52.2193 16.2394 51.8386C15.3466 51.4579 14.5401 50.9005 13.8684 50.1999H13.7716C13.0911 49.5178 12.5528 48.7073 12.188 47.8155C11.8232 46.9237 11.639 45.9684 11.6463 45.0049V32.0054C11.6389 31.0419 11.823 30.0865 12.1878 29.1947C12.5526 28.3029 13.091 27.4924 13.7716 26.8104H13.8684C14.5401 26.1098 15.3466 25.5524 16.2394 25.1717C17.1323 24.791 18.0929 24.595 19.0635 24.5954V24.586ZM31.9755 31.434H19.0635C18.8698 31.434 18.6785 31.434 18.5912 31.63C18.5316 31.6752 18.483 31.7333 18.4491 31.8C18.4151 31.8666 18.3967 31.9401 18.3952 32.0149V45.0238C18.3965 45.0986 18.4149 45.1721 18.4488 45.2388C18.4828 45.3055 18.5315 45.3636 18.5912 45.4087C18.688 45.6023 18.8793 45.6023 19.0635 45.6023H31.9732C32.1668 45.6023 32.3581 45.6023 32.4454 45.4087C32.5045 45.3631 32.5525 45.3048 32.586 45.2382C32.6195 45.1716 32.6377 45.0983 32.6391 45.0238V32.0054C32.6378 31.9308 32.6198 31.8575 32.5862 31.7908C32.5527 31.7242 32.5046 31.666 32.4454 31.6205V31.6205C32.3486 31.4245 32.1573 31.4245 31.9732 31.4245L31.9755 31.434Z" fill="#0B0C0C"/>
<path d="M47.9953 35.2711C47.0872 35.2711 46.2163 34.9104 45.5742 34.2682C44.932 33.6261 44.5713 32.7552 44.5713 31.8471C44.5713 30.939 44.932 30.0681 45.5742 29.426C46.2163 28.7838 47.0872 28.4231 47.9953 28.4231H62.0644C62.9725 28.4231 63.8435 28.7838 64.4856 29.426C65.1277 30.0681 65.4885 30.939 65.4885 31.8471C65.4885 32.7552 65.1277 33.6261 64.4856 34.2682C63.8435 34.9104 62.9725 35.2711 62.0644 35.2711H47.9953Z" fill="#0B0C0C"/>
<path d="M47.9953 47.7085C47.0872 47.7085 46.2163 47.3477 45.5742 46.7056C44.932 46.0635 44.5713 45.1926 44.5713 44.2845C44.5713 43.3764 44.932 42.5055 45.5742 41.8633C46.2163 41.2212 47.0872 40.8605 47.9953 40.8605H62.0644C62.9725 40.8605 63.8435 41.2212 64.4856 41.8633C65.1277 42.5055 65.4885 43.3764 65.4885 44.2845C65.4885 45.1926 65.1277 46.0635 64.4856 46.7056C63.8435 47.3477 62.9725 47.7085 62.0644 47.7085H47.9953Z" fill="#0B0C0C"/>
<path d="M15.8 62.8379C15.3563 62.8404 14.9164 62.7548 14.506 62.5861C14.0956 62.4173 13.7228 62.1688 13.4091 61.855C13.0955 61.5411 12.8472 61.1681 12.6788 60.7575C12.5104 60.347 12.4251 59.9072 12.4279 59.4634C12.4189 59.0181 12.5 58.5756 12.6663 58.1624C12.8325 57.7492 13.0806 57.3739 13.3955 57.059C13.7105 56.744 14.0858 56.496 14.499 56.3297C14.9122 56.1634 15.3547 56.0824 15.8 56.0914H63.6936C64.1373 56.0886 64.5772 56.1738 64.9877 56.3423C65.3983 56.5107 65.7713 56.7589 66.0851 57.0726C66.399 57.3863 66.6475 57.7591 66.8162 58.1695C66.985 58.5799 67.0706 59.0197 67.068 59.4634C67.057 60.355 66.698 61.2069 66.0675 61.8373C65.4371 62.4678 64.5851 62.8268 63.6936 62.8379H15.8Z" fill="#0B0C0C"/>
<path d="M15.8 77.181C14.8919 77.181 14.021 76.8203 13.3788 76.1782C12.7367 75.536 12.376 74.6651 12.376 73.757C12.376 72.8489 12.7367 71.978 13.3788 71.3359C14.021 70.6937 14.8919 70.333 15.8 70.333H63.6936C64.6017 70.333 65.4726 70.6937 66.1148 71.3359C66.7569 71.978 67.1176 72.8489 67.1176 73.757C67.1176 74.6651 66.7569 75.536 66.1148 76.1782C65.4726 76.8203 64.6017 77.181 63.6936 77.181H15.8Z" fill="#0B0C0C"/>
<path d="M15.8 91.1652C15.3547 91.1742 14.9122 91.0931 14.499 90.9268C14.0858 90.7605 13.7105 90.5125 13.3955 90.1976C13.0806 89.8826 12.8325 89.5073 12.6663 89.0941C12.5 88.6809 12.4189 88.2384 12.4279 87.7931C12.4264 87.3503 12.5126 86.9115 12.6816 86.5022C12.8506 86.093 13.0991 85.7212 13.4127 85.4085C13.7262 85.0959 14.0986 84.8484 14.5084 84.6805C14.9182 84.5127 15.3572 84.4277 15.8 84.4305H63.6936C64.5853 84.4409 65.4376 84.7998 66.0682 85.4304C66.6988 86.061 67.0576 86.9132 67.068 87.8049C67.0702 88.2485 66.9844 88.6882 66.8156 89.0985C66.6468 89.5088 66.3983 89.8815 66.0844 90.195C65.7706 90.5086 65.3977 90.7569 64.9874 90.9254C64.577 91.094 64.1373 91.1795 63.6936 91.177L15.8 91.1652Z" fill="#0B0C0C"/>
<path d="M38.8306 0.56576L89.2297 11.9358C91.011 12.3413 92.6945 13.0951 94.1832 14.1539C95.6719 15.2127 96.9364 16.5556 97.9039 18.1052C98.8714 19.6548 99.5228 21.3805 99.8205 23.1829C100.118 24.9853 100.056 26.8288 99.6387 28.6072L85.9427 88.9312C85.5456 90.7158 84.7953 92.4028 83.736 93.8928C82.6767 95.3828 81.3298 96.6457 79.7747 97.6069C77.6869 98.9854 75.2419 99.724 72.7401 99.7322C74.6835 97.5661 75.8674 94.8253 76.1122 91.9255L76.2255 91.8239C77.0144 91.3358 77.6941 90.6902 78.2223 89.9276C78.7505 89.165 79.1158 88.3017 79.2953 87.3916L93.0764 27.1621C93.4535 25.3067 93.1099 23.3773 92.1153 21.7663C91.1084 20.1683 89.5171 19.0269 87.6806 18.5855L37.2886 7.21306C36.3928 6.99047 35.461 6.95251 34.55 7.1015C33.6391 7.25049 32.7679 7.5833 31.9897 8.07969C30.3917 9.08549 29.2502 10.6761 28.8089 12.512L28.3366 14.8262H21.2926L22.1616 11.0692C22.9982 7.45593 25.2098 4.31084 28.3272 2.30138C31.4659 0.36965 35.2373 -0.253539 38.8306 0.56576V0.56576Z" fill="#0B0C0C"/>
</g>
<defs>
<clipPath id="clip0_117_2139">
<rect width="100" height="104.047" fill="white" transform="translate(0 0.223389)"/>
</clipPath>
</defs>
</svg>
