<svg width="100" height="101" viewBox="0 0 100 101" fill="none" xmlns="http://www.w3.org/2000/svg">
<path d="M2.31897 15.7471H100V30.5181H0.396973V15.7471H2.31897V15.7471ZM96.101 19.6461H4.29497V26.6741H96.1V19.6461H96.101Z" fill="#0B0C0C"/>
<path d="M2.31897 26.6741H100V35.6251H0.396973V26.6741H2.31897V26.6741ZM96.101 30.5171H4.29497V31.7251H96.1V30.5171H96.101Z" fill="#0B0C0C"/>
<path d="M2.31897 31.7261H100V43.5871H0.396973V31.7261H2.31897V31.7261ZM96.101 35.6231H4.29497V39.7411H96.1V35.6231H96.101Z" fill="#0B0C0C"/>
<path d="M5.94392 46.0562H12.9709V47.9792L13.5749 79.8781V81.8001H3.14392V79.8251L3.96892 47.9792L4.02392 46.0562H5.94392ZM9.18392 49.9551H7.81092L7.09792 77.9581H9.67992L9.18392 49.9551V49.9551Z" fill="#0B0C0C"/>
<path d="M3.03396 39.7411H15.663V49.4581H1.11096V39.7411H3.03396V39.7411ZM11.764 43.5861H4.95596V45.5621H11.766L11.764 43.5861V43.5861Z" fill="#0B0C0C"/>
<path d="M17.97 46.0562H24.996L25.052 47.9792L25.6 79.8781L25.655 81.8001H15.167L15.223 79.8251L16.047 47.9792L16.1 46.0562H17.97V46.0562ZM21.209 49.9551H19.834L19.121 77.9551H21.701L21.209 49.9551Z" fill="#0B0C0C"/>
<path d="M15.059 39.7411H27.688V49.4581H13.136V39.7411H15.059ZM23.789 43.5861H17.036V45.5621H23.789V43.5861Z" fill="#0B0C0C"/>
<path d="M30.0479 46.0562H37.0199L37.0749 47.9792L37.6789 79.8781V81.8001H27.1909L27.2459 79.8251L28.0689 47.9792L28.1259 46.0562H30.0479V46.0562ZM33.2319 49.9551H31.9129L31.1999 77.9551H33.7809L33.2319 49.9551Z" fill="#0B0C0C"/>
<path d="M27.1379 39.7411H39.7109V49.4581H25.2169V39.7411H27.1379V39.7411ZM35.8689 43.5861H29.0599V45.5621H35.8689V43.5861Z" fill="#0B0C0C"/>
<path d="M42.072 46.0562H49.1L49.154 47.9792L49.703 79.8781L49.758 81.8001H39.271L39.325 79.8251L40.149 47.9792L40.204 46.0562H42.072ZM45.312 49.9551H43.94L43.226 77.9551H45.806L45.312 49.9551Z" fill="#0B0C0C"/>
<path d="M39.162 39.7411H51.79V49.4581H37.24V39.7411H39.162V39.7411ZM47.893 43.5861H41.139V45.5621H47.893V43.5861Z" fill="#0B0C0C"/>
<path d="M54.097 46.0562H61.127L61.183 47.9792L61.784 79.8781V81.8001H51.298L51.356 79.8251L52.178 47.9792L52.235 46.0562H54.097V46.0562ZM57.336 49.9551H56.018L55.247 77.9551H57.886L57.336 49.9551V49.9551Z" fill="#0B0C0C"/>
<path d="M51.242 39.7411H63.813V49.4581H49.265V39.7411H51.242V39.7411ZM59.971 43.5861H53.163V45.5621H59.971V43.5861Z" fill="#0B0C0C"/>
<path d="M66.1769 46.0562H73.2059V47.9792L73.8089 79.8781L73.8649 81.8001H63.3779L63.4319 79.8251L64.2559 47.9792L64.3119 46.0562H66.1769V46.0562ZM69.4189 49.9551H68.0429L67.3309 77.9551H69.9109L69.4189 49.9551V49.9551Z" fill="#0B0C0C"/>
<path d="M63.2659 39.7411H75.8959V49.4581H61.3469V39.7411H63.2659ZM71.9959 43.5861H65.1879V45.5621H71.9959V43.5861V43.5861Z" fill="#0B0C0C"/>
<path d="M78.2 46.0562H85.229L85.286 47.9792L85.834 79.8781L85.89 81.8001H75.403L75.461 79.8251L76.283 47.9792L76.337 46.0562H78.2V46.0562ZM81.444 49.9551H80.124L79.354 77.9551H81.989L81.444 49.9551V49.9551Z" fill="#0B0C0C"/>
<path d="M75.347 39.7411H87.919V49.4581H73.37V39.7411H75.347V39.7411ZM84.077 43.5861H77.267V45.5621H84.077V43.5861Z" fill="#0B0C0C"/>
<path d="M90.281 46.0562H97.307V47.9792L97.912 79.8781L97.967 81.8001H87.481L87.537 79.8251L88.361 47.9792V46.0562H90.281ZM93.521 49.9551H92.148L91.434 77.9571H94.015L93.521 49.9551Z" fill="#0B0C0C"/>
<path d="M87.372 39.7411H100V49.4581H85.448V39.7411H87.372V39.7411ZM96.101 43.5861H89.293V45.5621H96.103V43.5861H96.101V43.5861Z" fill="#0B0C0C"/>
<path d="M2.31897 77.958H100V92.724H0.396973V77.958H2.31897V77.958ZM96.101 81.8H4.29497V88.828H96.1V81.8H96.101Z" fill="#0B0C0C"/>
<path d="M43.665 24.2031L45.477 23.8731L45.698 21.4021C45.698 21.4021 40.756 20.1941 40.535 10.5851C42.952 13.0571 48.607 14.8691 50.201 12.7821C51.735 14.8681 57.392 13.0561 59.863 10.5851C59.643 20.1951 54.702 21.4021 54.702 21.4021L54.922 23.8731L56.735 24.2031C54.318 26.8941 46.027 26.8941 43.665 24.2031V24.2031Z" fill="#0B0C0C"/>
<path d="M46.9039 11.6861C47.8929 9.10406 51.8439 10.3671 52.5059 9.54306C52.6159 9.48906 53.2189 10.9721 52.2879 11.7951C51.3529 12.6181 52.1199 14.8151 52.1199 14.8151L50.2019 14.9801C50.2019 14.9801 48.6629 14.8711 48.4419 14.2651C48.2219 13.6051 49.5399 11.1901 46.9039 11.6861V11.6861Z" fill="#0B0C0C"/>
</svg>
