<svg width="101" height="101" viewBox="0 0 101 101" fill="none" xmlns="http://www.w3.org/2000/svg">
<g clip-path="url(#clip0_117_1684)">
<path d="M4.87732 88.122C3.44132 88.045 2.23132 86.912 2.23132 85.401C2.23132 83.963 3.44132 82.7549 4.87732 82.7549L17.6523 82.905C18.4853 82.905 19.2403 82.981 19.9973 83.133C20.7523 83.284 21.4333 83.5099 22.2653 83.7369L47.8163 93.11C49.2523 93.638 50.6903 93.7919 52.0513 93.5619C53.4103 93.4109 54.6963 92.806 55.9053 91.9L90.0013 66.501C90.5303 66.049 91.1363 65.595 91.5873 65.141C92.7983 63.932 93.9313 62.571 94.4603 61.21C94.8363 60.229 94.8363 59.244 94.2333 58.337C94.1583 58.262 94.0823 58.109 93.9303 58.034C91.5103 55.465 86.5963 58.108 83.9513 59.471L83.8003 59.545C80.6243 61.2099 58.6283 74.893 58.5513 74.893C57.3433 75.649 55.6773 75.272 54.9233 74.063C54.1673 72.776 54.5443 71.191 55.7523 70.359C55.8303 70.359 78.1293 56.523 81.3063 54.862L81.4583 54.787C85.3123 52.745 92.5703 48.889 97.7843 54.332C98.0123 54.636 98.2403 54.863 98.4673 55.164C100.431 57.734 100.431 60.457 99.4493 63.102C98.6183 65.29 96.9543 67.334 95.2923 68.998C94.5333 69.678 93.8553 70.282 93.1753 70.736L59.0803 96.2099C57.1893 97.6449 55.0733 98.552 52.8043 98.855C50.6133 99.159 48.2703 98.9319 46.0013 98.0999L20.4493 88.7269C19.9213 88.5759 19.4663 88.4249 19.0123 88.3499C18.5603 88.2739 18.1043 88.2739 17.5763 88.1979L4.87732 88.122V88.122Z" fill="#0B0C0C"/>
<path d="M54.6953 63.252C53.4113 63.932 51.7483 63.477 51.0673 62.191C50.3133 60.907 50.7653 59.318 52.0493 58.563L68.6043 49.265C72.0833 47.299 75.6373 46.92 78.9633 47.905C82.2113 48.887 85.0843 51.23 87.0523 54.709C87.8063 55.993 87.3553 57.657 86.1423 58.337C84.8583 59.093 83.1953 58.64 82.5133 57.43C81.1533 55.087 79.3383 53.574 77.3733 52.969C75.4803 52.442 73.3683 52.666 71.2483 53.876L54.6953 63.252V63.252Z" fill="#0B0C0C"/>
<path d="M3.44135 58.791C2.00435 59.093 0.568348 58.187 0.265348 56.748C-0.0376518 55.311 0.869348 53.875 2.30635 53.573L16.1404 50.548C17.5004 50.246 18.9364 50.172 20.2974 50.322C21.6584 50.471 23.0184 50.775 24.3804 51.382L48.0414 61.813L48.1924 61.886L48.3444 61.962C48.3444 61.962 54.9214 66.044 51.7464 74.966C48.2684 84.34 38.1404 80.486 38.0624 80.486V80.41L22.4144 74.213C21.0544 73.608 20.3733 72.095 20.9024 70.733C21.5074 69.375 23.0194 68.694 24.3814 69.223L39.9554 75.497C40.3314 75.648 45.1714 77.311 46.6824 73.152C48.2704 68.769 46.1534 66.88 45.6994 66.577L22.2643 56.297C21.4323 55.919 20.6004 55.693 19.7703 55.615C19.0133 55.539 18.1054 55.615 17.2003 55.766L3.44135 58.791V58.791Z" fill="#0B0C0C"/>
<path d="M47.2123 3.67896C50.9173 3.67896 54.2423 5.19096 56.6633 7.60996C59.0833 10.03 60.5914 13.355 60.5914 17.06C60.5914 20.764 59.0813 24.092 56.6633 26.51C54.2423 28.929 50.9173 30.365 47.2123 30.365C43.5833 30.365 40.2573 28.929 37.8373 26.51H37.7623C35.3433 24.091 33.9073 20.688 33.9073 17.06C33.9073 13.355 35.3443 10.03 37.7623 7.60996C40.1823 5.19096 43.5833 3.67896 47.2123 3.67896V3.67896ZM52.8793 11.391C51.4453 9.95495 49.4803 9.04696 47.2123 9.04696C45.0193 9.04696 43.0554 9.95495 41.5434 11.391C40.1074 12.828 39.1993 14.792 39.1993 17.061C39.1993 19.252 40.1074 21.294 41.5434 22.731C42.9794 24.167 45.0203 25.074 47.2123 25.074C49.4813 25.074 51.4473 24.168 52.8793 22.731C54.3933 21.294 55.2243 19.252 55.2243 17.061C55.2243 14.792 54.3933 12.828 52.8793 11.391Z" fill="#0B0C0C"/>
<path d="M32.6214 45.787C32.6214 47.224 31.4124 48.433 29.9004 48.433C28.4634 48.433 27.2544 47.224 27.2544 45.787C27.2544 40.269 29.5224 35.279 33.1504 31.65C36.7034 28.021 41.6924 25.829 47.2124 25.829C52.7294 25.829 57.7194 28.021 61.3484 31.65C64.9774 35.279 67.2474 40.268 67.2474 45.787C67.2474 47.224 66.0354 48.433 64.5254 48.433C63.0874 48.433 61.8794 47.224 61.8794 45.787C61.8794 41.705 60.2144 38.077 57.5694 35.431C54.9234 32.785 51.2954 31.122 47.2124 31.122C43.2064 31.122 39.5004 32.785 36.8574 35.431C34.2094 38.077 32.6214 41.705 32.6214 45.787Z" fill="#0B0C0C"/>
<path d="M17.2763 14.188C20.1483 14.188 22.7953 15.397 24.6843 17.288C26.5733 19.177 27.7843 21.823 27.7843 24.696C27.7843 27.644 26.5753 30.216 24.6843 32.105V32.181C22.7953 34.071 20.1483 35.205 17.2763 35.205C14.4033 35.205 11.7573 34.071 9.86633 32.181V32.105C7.97833 30.216 6.76733 27.645 6.76733 24.696C6.76733 21.823 7.97633 19.177 9.86633 17.288C11.7573 15.397 14.4033 14.188 17.2763 14.188V14.188ZM20.9793 21.067C19.9973 20.16 18.7123 19.554 17.2763 19.554C15.8393 19.554 14.5553 20.159 13.6473 21.067C12.6643 21.974 12.1353 23.259 12.1353 24.695C12.1353 26.131 12.6643 27.417 13.6473 28.4C14.5553 29.307 15.8403 29.912 17.2763 29.912C18.7123 29.912 19.9973 29.308 20.9793 28.4C21.8873 27.416 22.4163 26.131 22.4163 24.695C22.4153 23.259 21.8863 21.974 20.9793 21.067Z" fill="#0B0C0C"/>
<path d="M7.2973 45.7869C7.2973 47.2239 6.0883 48.4329 4.5763 48.4329C3.1403 48.4329 1.9303 47.2239 1.9303 45.7869C1.9303 41.5539 3.6693 37.6979 6.4663 34.8999C9.1873 32.1789 13.0443 30.4409 17.2773 30.4409C21.5103 30.4409 25.3653 32.1789 28.1623 34.8999C30.8833 37.6969 32.6233 41.5529 32.6233 45.7869C32.6233 47.2239 31.4143 48.4329 29.9773 48.4329C28.4663 48.4329 27.3323 47.2239 27.3323 45.7869C27.3323 42.9899 26.1983 40.4949 24.3833 38.6809C22.5683 36.8679 20.0743 35.7329 17.2783 35.7329C14.5563 35.7329 11.9863 36.8669 10.1723 38.6809C8.3543 40.4939 7.2973 42.9899 7.2973 45.7869V45.7869Z" fill="#0B0C0C"/>
<path d="M77.2234 14.188C80.0944 14.188 82.7424 15.397 84.6314 17.288C86.5214 19.177 87.7324 21.823 87.7324 24.696C87.7324 27.644 86.5214 30.216 84.6314 32.105V32.181C82.7414 34.071 80.0944 35.205 77.2234 35.205C74.3494 35.205 71.7024 34.071 69.8134 32.181V32.105C67.9254 30.216 66.7144 27.645 66.7144 24.696C66.7144 21.823 67.9254 19.177 69.8134 17.288C71.7054 15.397 74.3494 14.188 77.2234 14.188V14.188ZM80.8514 21.067C79.9454 20.16 78.6624 19.554 77.2234 19.554C75.7874 19.554 74.5014 20.159 73.5964 21.067C72.6094 21.974 72.0824 23.259 72.0824 24.695C72.0824 26.131 72.6084 27.417 73.5964 28.4C74.5014 29.307 75.7874 29.912 77.2234 29.912C78.6614 29.912 79.9454 29.308 80.8514 28.4C81.8344 27.416 82.3644 26.131 82.3644 24.695C82.3644 23.259 81.8344 21.974 80.8514 21.067Z" fill="#0B0C0C"/>
<path d="M67.2463 45.7869C67.2463 47.2239 66.0343 48.4329 64.5243 48.4329C63.0853 48.4329 61.8773 47.2239 61.8773 45.7869C61.8773 41.5539 63.6133 37.6979 66.4123 34.8999C69.1333 32.1789 72.9913 30.4409 77.2233 30.4409C81.4573 30.4409 85.3123 32.1789 88.1093 34.8999C90.8323 37.6969 92.5703 41.5529 92.5703 45.7869C92.5703 47.2239 91.3603 48.4329 89.9243 48.4329C88.4123 48.4329 87.2783 47.2239 87.2783 45.7869C87.2783 42.9899 86.1433 40.4949 84.3303 38.6809C82.5163 36.8679 80.0213 35.7329 77.2253 35.7329C74.4263 35.7329 71.9323 36.8669 70.1203 38.6809C68.3043 40.4939 67.2463 42.9899 67.2463 45.7869V45.7869Z" fill="#0B0C0C"/>
</g>
<defs>
<clipPath id="clip0_117_1684">
<rect width="100" height="100" fill="white" transform="translate(0.0163574 0.5)"/>
</clipPath>
</defs>
</svg>
