<svg width="100" height="100" viewBox="0 0 100 100" fill="none" xmlns="http://www.w3.org/2000/svg">
<g clip-path="url(#clip0_117_2653)">
<path d="M13.041 0H87.025C89.97 0 92.738 1.25 94.7 3.213C96.575 5.087 97.823 7.764 97.823 10.799C98.003 29.451 97.913 44.622 92.917 58.367C87.917 72.289 78.188 84.515 59.093 96.832C56.324 98.617 53.202 99.51 50.167 99.51C47.043 99.51 43.919 98.617 41.152 96.922C21.786 84.428 11.968 72.199 6.96997 58.277C2.06197 44.535 2.06197 29.452 2.15097 10.799C2.23997 7.854 3.40097 5.087 5.36497 3.213C7.32797 1.25 10.095 0 13.041 0V0ZM87.024 6.335H13.041C11.791 6.335 10.63 6.781 9.82797 7.585C9.02397 8.476 8.48898 9.548 8.48898 10.798C8.30998 28.825 8.30998 43.372 12.951 56.132C17.412 68.806 26.515 79.962 44.545 91.564C46.328 92.722 48.205 93.261 50.165 93.261C52.041 93.261 53.915 92.722 55.698 91.564C73.459 80.142 82.471 68.896 87.023 56.222C91.572 43.46 91.755 28.824 91.572 10.798C91.572 9.548 91.038 8.476 90.235 7.585C89.436 6.782 88.273 6.335 87.024 6.335V6.335Z" fill="#0B0C0C"/>
<path d="M49.988 12.226C55.431 12.226 60.34 14.369 63.908 17.939C67.39 21.508 69.622 26.417 69.622 31.772C69.622 37.216 67.39 42.1249 63.908 45.6059C60.339 49.1759 55.431 51.408 49.988 51.408C44.632 51.408 39.725 49.1759 36.155 45.6059C32.586 42.1239 30.442 37.216 30.442 31.772C30.442 26.418 32.586 21.508 36.155 17.939C39.725 14.369 44.632 12.226 49.988 12.226V12.226ZM59.449 22.401C57.038 19.99 53.735 18.473 49.988 18.473C46.329 18.473 43.027 19.99 40.615 22.401C38.206 24.809 36.689 28.111 36.689 31.77C36.689 35.429 38.207 38.82 40.615 41.231C43.026 43.639 46.328 45.067 49.988 45.067C53.735 45.067 57.038 43.638 59.449 41.231C61.858 38.819 63.285 35.429 63.285 31.77C63.285 28.111 61.858 24.81 59.449 22.401Z" fill="#0B0C0C"/>
<path d="M26.5159 76.035C26.5159 77.734 25.0879 79.16 23.3919 79.16C21.6069 79.16 20.2679 77.734 20.2679 76.035C20.2679 67.738 23.5689 60.332 28.9239 54.976C34.3679 49.53 41.7779 46.228 49.9869 46.228C58.2859 46.228 65.6959 49.53 71.0469 54.976C76.4919 60.331 79.7949 67.738 79.7949 76.035C79.7949 77.734 78.3679 79.16 76.6709 79.16C74.8839 79.16 73.5469 77.734 73.5469 76.035C73.5469 69.521 70.8679 63.633 66.6749 59.435C62.3919 55.152 56.4999 52.474 49.9869 52.474C43.5599 52.474 37.6709 55.152 33.3859 59.435C29.1939 63.633 26.5159 69.521 26.5159 76.035V76.035Z" fill="#0B0C0C"/>
</g>
<defs>
<clipPath id="clip0_117_2653">
<rect width="100" height="100" fill="white"/>
</clipPath>
</defs>
</svg>
